<svg width="21" height="30" viewBox="0 0 21 30" fill="none" xmlns="http://www.w3.org/2000/svg">
<path d="M2.00002 10.909C2.00012 12.8515 2.44206 14.7688 3.29275 16.5172L6.34342 22.79C7.83614 25.8579 8.5825 27.3919 9.6419 27.8028C10.3194 28.0657 11.0716 28.0657 11.7491 27.8028C12.8085 27.3919 13.5549 25.8579 15.0476 22.79L18.0983 16.5158C18.9487 14.7678 19.3907 12.851 19.391 10.909C19.391 6.16876 15.4606 2.32666 10.6955 2.32666C5.93038 2.32666 2.00002 6.16876 2.00002 10.909Z" stroke="#07BB5C" stroke-width="3"/>
<path d="M7.79707 10.9765C7.79707 11.7412 8.10244 12.4746 8.64602 13.0154C9.18959 13.5561 9.92683 13.8599 10.6956 13.8599C11.4643 13.8599 12.2015 13.5561 12.7451 13.0154C13.2887 12.4746 13.5941 11.7412 13.5941 10.9765C13.5941 10.2118 13.2887 9.4784 12.7451 8.93766C12.2015 8.39692 11.4643 8.09314 10.6956 8.09314C9.92683 8.09314 9.18959 8.39692 8.64602 8.93766C8.10244 9.4784 7.79707 10.2118 7.79707 10.9765Z" fill="#07BB5C"/>
</svg>
